<?xml version="1.0" standalone="no"?>
<!DOCTYPE svg PUBLIC "-//W3C//DTD SVG 1.1//EN" "http://www.w3.org/Graphics/SVG/1.1/DTD/svg11.dtd" >
<!--
2013-9-30: Created.
-->
<svg>
<metadata>
Created by iconfont
</metadata>
<defs>

<font id="iconfont" horiz-adv-x="1024" >
  <font-face
    font-family="iconfont"
    font-weight="500"
    font-stretch="normal"
    units-per-em="1024"
    ascent="896"
    descent="-128"
  />
    <missing-glyph />
    
    <glyph glyph-name="xifuguanbi" unicode="&#58975;" d="M328.94464 230.3744c-24.09472 40.15616-24.09472 96.37888-8.03328 136.54016L152.2432 535.5776c-112.44544-152.6016-104.41216-369.4592 40.15616-497.96608 72.28416-64.256 160.63488-96.37888 257.01376-96.37888 80.31744 0 160.63488 24.09472 232.91904 80.31744l-176.6912 176.69632c-64.256-32.128-136.54016-24.09472-176.69632 32.128z m642.5344 128.50688L859.0336 471.32672c-16.06144 16.06144-40.15616 16.06144-56.22272 0l-128.50688-120.4736 168.66816-168.66816 120.4736 120.4736c16.06656 16.06144 16.06656 40.15616 8.03328 56.22272z m-361.42592 305.2032c16.06144 16.06144 16.06144 40.15616 0 56.22272l-120.4736 112.44544c-16.06144 16.06144-40.15616 16.06144-56.22272 0l-120.4736-120.4736 168.66816-168.66816 128.50176 120.4736z m8.03328-369.4592L425.32352 487.38816 256.65536 656.05632 128.14848 784.5632 71.92576 728.34048l128.50688-128.50688L369.1008 431.16544l192.76288-192.76288 168.66816-168.66816 144.57344-144.57344 56.22272 56.22272-144.57344 144.57344-168.66816 168.66816z"  horiz-adv-x="1024" />

    
    <glyph glyph-name="xifukaiqi" unicode="&#58976;" d="M848.95744 167.51616l131.36384 131.36384c16.41984 16.41984 16.41984 41.05216 0 57.472l-114.944 114.944c-16.41984 16.41984-41.05216 16.41984-57.472 0l-131.36384-131.36384 172.416-172.416z m-229.888 114.94912l-82.10432-82.10432c-57.472-57.472-155.99616-49.26464-213.46816 16.41984-32.83968 57.472-24.63232 139.57632 24.63232 188.83584l73.89184 73.89184L249.60512 651.9296 183.92064 586.24512c-155.99616-155.99616-164.20864-418.72896 0-566.51264 73.89184-65.68448 164.20864-98.52416 262.7328-98.52416s197.04832 41.05216 270.94016 114.944l73.89184 73.89184-172.416 172.42112zM479.49312 536.9856l131.36384 131.36384c16.41984 16.41984 16.41984 41.05216 0 57.472L487.7056 832.55808c-16.41984 16.41984-41.05216 16.41984-57.472 0L307.07712 709.4016 479.49312 536.9856z"  horiz-adv-x="1024" />

    
    <glyph glyph-name="fangda" unicode="&#59084;" d="M853.333333 896h-682.666666C75.093333 896 0 820.906667 0 725.333333v-682.666666C0-52.906667 75.093333-128 170.666667-128h682.666666c95.573333 0 170.666667 75.093333 170.666667 170.666667v682.666666C1024 820.906667 948.906667 896 853.333333 896zM955.733333 42.666667c0-54.613333-47.786667-102.4-102.4-102.4h-682.666666c-54.613333 0-102.4 47.786667-102.4 102.4v682.666666C68.266667 779.946667 116.053333 827.733333 170.666667 827.733333h682.666666c54.613333 0 102.4-47.786667 102.4-102.4v-682.666666zM402.773333 322.56L204.8 124.586667V247.466667c0 20.48-13.653333 34.133333-34.133333 34.133333s-34.133333-13.653333-34.133334-34.133333v-204.8c0-20.48 13.653333-34.133333 34.133334-34.133334h204.8c20.48 0 34.133333 13.653333 34.133333 34.133334s-13.653333 34.133333-34.133333 34.133333H252.586667l197.973333 197.973333c13.653333 13.653333 13.653333 34.133333 0 47.786667-13.653333 13.653333-34.133333 13.653333-47.786667 0zM853.333333 759.466667h-204.8c-20.48 0-34.133333-13.653333-34.133333-34.133334s13.653333-34.133333 34.133333-34.133333h122.88L573.44 493.226667c-13.653333-13.653333-13.653333-34.133333 0-47.786667 13.653333-13.653333 34.133333-13.653333 47.786667 0L819.2 643.413333v-122.88c0-20.48 13.653333-34.133333 34.133333-34.133333s34.133333 13.653333 34.133334 34.133333v204.8c0 20.48-13.653333 34.133333-34.133334 34.133334z"  horiz-adv-x="1024" />

    
    <glyph glyph-name="suoxiao1" unicode="&#59099;" d="M853.333333 896h-682.666666C75.093333 896 0 820.906667 0 725.333333v-682.666666C0-52.906667 75.093333-128 170.666667-128h682.666666c95.573333 0 170.666667 75.093333 170.666667 170.666667v682.666666C1024 820.906667 948.906667 896 853.333333 896zM955.733333 42.666667c0-54.613333-47.786667-102.4-102.4-102.4h-682.666666c-54.613333 0-102.4 47.786667-102.4 102.4v682.666666C68.266667 779.946667 116.053333 827.733333 170.666667 827.733333h682.666666c54.613333 0 102.4-47.786667 102.4-102.4v-682.666666zM812.373333 732.16L614.4 534.186667V657.066667c0 20.48-13.653333 34.133333-34.133333 34.133333s-34.133333-13.653333-34.133334-34.133333v-204.8c0-20.48 13.653333-34.133333 34.133334-34.133334h204.8c20.48 0 34.133333 13.653333 34.133333 34.133334s-13.653333 34.133333-34.133333 34.133333H662.186667l197.973333 197.973333c13.653333 13.653333 13.653333 34.133333 0 47.786667-13.653333 13.653333-34.133333 13.653333-47.786667 0zM443.733333 349.866667h-204.8c-20.48 0-34.133333-13.653333-34.133333-34.133334s13.653333-34.133333 34.133333-34.133333h122.88l-197.973333-197.973333c-13.653333-13.653333-13.653333-34.133333 0-47.786667 13.653333-13.653333 34.133333-13.653333 47.786667 0L409.6 233.813333v-122.88c0-20.48 13.653333-34.133333 34.133333-34.133333s34.133333 13.653333 34.133334 34.133333v204.8c0 20.48-13.653333 34.133333-34.133334 34.133334z"  horiz-adv-x="1024" />

    
    <glyph glyph-name="icon" unicode="&#59328;" d="M512-41C277.286-41 87 149.286 87 384S277.286 809 512 809s425-190.286 425-425-190.286-425-425-425z m196.154 457.692H544.692V580.154c0 18.055-14.637 32.692-32.692 32.692s-32.692-14.637-32.692-32.692v-163.462H315.846c-18.055 0-32.692-14.637-32.692-32.692s14.637-32.692 32.692-32.692h163.462v-163.462c0-18.055 14.637-32.692 32.692-32.692s32.692 14.637 32.692 32.692V351.308h163.462c18.055 0 32.692 14.637 32.692 32.692s-14.637 32.692-32.692 32.692z"  horiz-adv-x="1024" />

    
    <glyph glyph-name="icon1" unicode="&#59329;" d="M571.252 158.828L438.484 324.654c-20.985 26.188-59.167 30.382-85.27 9.513-3.48-2.762-6.654-6.035-9.52-9.513L148.28 80.57h728.43L743.123 258.467c-20.064 26.802-58.144 32.224-84.963 12.173a62.4 62.4 0 0 1-12.182-12.173l-74.726-99.639zM147.714 809h728.572C909.766 809 937 781.868 937 748.286v-728.572c0-33.48-27.132-60.714-60.714-60.714H147.714C114.234-41 87-13.868 87 19.714V748.286C87 781.766 114.234 809 147.714 809zM693.86 444.29c67.14 0 121.57 54.43 121.57 121.57 0 67.14-54.43 121.57-121.57 121.57-67.14 0-121.57-54.43-121.57-121.57 0-67.14 54.43-121.57 121.57-121.57z"  horiz-adv-x="1024" />

    
    <glyph glyph-name="icon2" unicode="&#59330;" d="M512-41C277.286-41 87 149.286 87 384S277.286 809 512 809s425-190.286 425-425-190.286-425-425-425z m32.692 457.692H315.846c-18.055 0-32.692-14.637-32.692-32.692s14.637-32.692 32.692-32.692h392.308c18.055 0 32.692 14.637 32.692 32.692s-14.637 32.692-32.692 32.692H544.692z"  horiz-adv-x="1024" />

    
    <glyph glyph-name="icon3" unicode="&#59331;" d="M87 785v-240.144c0-13.255 10.745-24 24-24a24 24 0 0 1 0.79 0.013l12.791 0.421c12.94 105.418 97.616 177.345 145.758 189.333 48.237 11.988 141.096-1.047 141.096-1.047s-1.237-594.828-1.237-636.69c0-41.959-56.42-59.94-56.42-59.94l-48.805-0.804c-14.716-0.242-26.609-12.073-26.928-26.788-0.308-14.243 10.988-26.04 25.232-26.348 0.186-0.004 0.372-0.006 0.558-0.006h417.05c14.213 0 25.736 11.522 25.736 25.736s-11.523 25.736-25.736 25.736h-60.083c-38.818 3.615-62.223 53.946-62.223 53.946l1.047 651.248s58.798 10.75 143.474-4.853C827.777 695.21 899.42 516.628 899.42 516.628H913c13.255 0 24 10.745 24 24V785c0 13.255-10.745 24-24 24H111c-13.255 0-24-10.745-24-24z"  horiz-adv-x="1024" />

    
    <glyph glyph-name="icon4" unicode="&#59332;" d="M306.001 753c29.617 0 56.007-18.695 65.832-46.634l181.409-515.898a31.516 31.516 0 0 0 1.784-10.455c0-17.405-14.11-31.516-31.516-31.516-26.606 0-50.265 16.926-58.857 42.106l-34.468 101.011a24 24 0 0 1-22.714 16.25l-202.756-0.002a24 24 0 0 1-22.792-16.482l-35.007-106.13C138.6 160.03599999999994 115.042 143 88.49 143a31.61 31.61 0 0 0-10.402 1.76c-16.486 5.745-25.193 23.766-19.448 40.252l117.613 337.51L240.3 706.3199999999999c9.74 27.951 36.1 46.68 65.7 46.68z m-0.887-90.53a4 4 0 0 1-5.002-2.64l-1.154-3.731C271.988 568.98 241.335 476.947 207 380h198c-31.69 98.414-64.13 191.766-97.322 280.057a4 4 0 0 1-2.564 2.414zM726.712 752.812c29.617 0 56.007-18.695 65.832-46.634L973.953 190.27999999999997a31.516 31.516 0 0 0 1.784-10.455c0-17.406-14.11-31.516-31.516-31.516-26.606 0-50.265 16.926-58.857 42.106l-34.468 101.011a24 24 0 0 1-22.714 16.25l-202.756-0.002a24 24 0 0 1-22.792-16.482l-35.007-106.13c-8.317-25.215-31.874-42.25-58.426-42.25a31.61 31.61 0 0 0-10.402 1.76c-16.486 5.745-25.193 23.766-19.448 40.252l117.613 337.51 64.048 183.798c9.74 27.951 36.1 46.68 65.7 46.68z m-0.887-90.53a4 4 0 0 1-5.002-2.64l-1.154-3.731c-26.97-87.119-57.623-179.152-91.958-276.1h198c-31.69 98.414-64.13 191.767-97.322 280.057a4 4 0 0 1-2.564 2.415zM70.111 65.44000000000005h882.72c29.333 0 53.112-23.778 53.112-53.11 0-29.334-23.779-53.112-53.111-53.112H70.112C40.778-40.78200000000004 17-17.00400000000002 17 12.32899999999995s23.779 53.111 53.111 53.111z"  horiz-adv-x="1076" />

    
    <glyph glyph-name="icon5" unicode="&#59333;" d="M511.953 809C277.238 809 87 618.762 87 384.047 87 149.332 277.332-41 512.047-41 746.762-41 937 149.238 937 384.047 937 618.762 746.762 809 511.953 809zM653.16 208.983c-8.346 0-16.691 2.75-23.709 8.44L482.46 337.674a37.303 37.303 0 0 0-13.75 28.925V612.23c0 20.674 16.785 37.46 37.459 37.46 20.674 0 33.46-16.786 33.46-37.46v-227.804l133.336-109.06c15.932-13.087 22.303-36.7 9.216-52.633-7.397-9.009-18.113-13.75-29.02-13.75z"  horiz-adv-x="1024" />

    
    <glyph glyph-name="icon6" unicode="&#59334;" d="M512 674c-193.182 0-358.158-120.159-425-289.773 66.84-169.613 231.818-289.772 425-289.772 193.375 0 358.16 120.159 425 289.772C870.158 553.841 705.375 674 512 674z m0-482.955c-106.636 0-193.182 86.546-193.182 193.182 0 106.637 86.545 193.182 193.182 193.182 106.637 0 193.182-86.545 193.182-193.182 0-106.636-86.546-193.182-193.182-193.182z m0 309.091c-63.943 0-115.909-51.966-115.909-115.909 0-63.942 51.966-115.909 115.909-115.909 63.943 0 115.909 51.967 115.909 115.91 0 63.942-51.966 115.908-115.909 115.908z"  horiz-adv-x="1024" />

    
    <glyph glyph-name="icon7" unicode="&#59335;" d="M196.632 542.58h630.474c62.644 0 113.603-39.422 114.616-88.298l0.016-1.484v-404.017c0-49.063-50.333-88.976-112.737-89.769l-1.895-0.012H196.632c-62.644 0-113.604 39.422-114.617 88.298L82 48.78V452.798c0 49.064 50.333 88.976 112.737 89.77l1.895 0.012h630.474z m229.43-169.063c-6.426-3.13-10.44-8.885-10.584-15.195l-0.004-0.352v-214.358c0-6.448 4.043-12.394 10.588-15.547 3.168-1.576 6.711-2.328 10.254-2.328 3.533 0 7.067 0.78 10.276 2.308l0.479 0.235 208.38 107.18c6.294 3.223 10.129 9.027 10.129 15.331 0 6.153-3.695 11.892-9.783 15.15l-0.347 0.182-208.38 107.18c-6.419 3.295-14.505 3.402-21.008 0.214z m364.57 294.115c23.022 0 41.685-18.662 41.685-41.684s-18.663-41.684-41.685-41.684h-583.58c-23.02 0-41.683 18.662-41.683 41.684s18.662 41.684 41.684 41.684h583.58zM707.264 809c23.021 0 41.684-18.663 41.684-41.684 0-23.022-18.663-41.685-41.684-41.685H290.42c-23.021 0-41.684 18.663-41.684 41.685C248.737 790.337 267.4 809 290.421 809h416.843z"  horiz-adv-x="1024" />

    
    <glyph glyph-name="icon8" unicode="&#59336;" d="M748.162 809H181.485C129.546 809 87 766.533 87 714.575v-661.092C87 1.466 129.546-41 181.485-41h661.1c51.887 0 94.434 42.466 94.434 94.483V620.162L748.162 809zM512.015 53.482c-80.323 0-141.682 61.29-141.682 141.662 0 80.252 61.36 141.682 141.682 141.682 80.304 0 141.66-61.43 141.66-141.682 0-80.372-61.356-141.662-141.66-141.662z m141.662 472.194H181.425V714.575h472.252v-188.9z"  horiz-adv-x="1024" />

    
    <glyph glyph-name="icon9" unicode="&#59337;" d="M937 12.119V755.874C937 785.217 913.215 809 883.872 809s-53.126-23.783-53.126-53.126v-743.755c0-29.334 23.783-53.119 53.126-53.119C913.215-41 937-17.215 937 12.119zM193.244 224.624v531.25c0 29.343-23.784 53.126-53.127 53.126C110.783 809 87 785.217 87 755.874v-531.25c0-29.341 23.783-53.126 53.117-53.126 29.343 0 53.127 23.785 53.127 53.126z m497.254 0v531.25c0 29.343-23.783 53.126-53.126 53.126-29.343 0-53.127-23.783-53.127-53.126v-531.25c0-29.341 23.784-53.126 53.127-53.126 29.343 0 53.126 23.785 53.126 53.126zM439.746 12.12V755.874c0 29.343-23.785 53.126-53.127 53.126-29.334 0-53.117-23.783-53.117-53.126v-743.755c0-29.334 23.783-53.119 53.117-53.119 29.342 0 53.127 23.785 53.127 53.119z"  horiz-adv-x="1024" />

    
    <glyph glyph-name="icon10" unicode="&#59338;" d="M884.881 809H141.126C111.783 809 88 785.215 88 755.872s23.783-53.126 53.126-53.126h743.755c29.334 0 53.119 23.783 53.119 53.126C938 785.215 914.215 809 884.881 809zM778.376 65h-531.25C217.783 65 194 41.217 194 11.874c0-29.334 23.783-53.118 53.126-53.118h531.25c29.341 0 53.126 23.784 53.126 53.118 0 29.343-23.785 53.126-53.126 53.126z m0 497h-531.25C217.783 562 194 538.217 194 508.874c0-29.343 23.783-53.127 53.126-53.127h531.25c29.341 0 53.126 23.784 53.126 53.127 0 29.343-23.785 53.126-53.126 53.126zM884.88 312H141.126C111.783 312 88 288.215 88 258.874c0-29.334 23.783-53.118 53.126-53.118h743.755c29.334 0 53.119 23.784 53.119 53.118C938 288.215 914.215 312 884.881 312z"  horiz-adv-x="1025" />

    
    <glyph glyph-name="icon11" unicode="&#59339;" d="M883.881 809H140.126C110.783 809 87 785.215 87 755.872s23.783-53.126 53.126-53.126h743.755c29.334 0 53.119 23.783 53.119 53.126C937 785.215 913.215 809 883.881 809zM671.376 65.244h-531.25C110.783 65.244 87 41.46 87 12.117 87-17.217 110.783-41 140.126-41h531.25c29.341 0 53.126 23.783 53.126 53.117 0 29.343-23.785 53.127-53.126 53.127z m0 497.254h-531.25c-29.343 0-53.126-23.783-53.126-53.126 0-29.343 23.783-53.127 53.126-53.127h531.25c29.341 0 53.126 23.784 53.126 53.127 0 29.343-23.785 53.126-53.126 53.126zM883.88 311.746H140.126C110.783 311.746 87 287.96 87 258.619c0-29.334 23.783-53.117 53.126-53.117h743.755c29.334 0 53.119 23.783 53.119 53.117 0 29.342-23.785 53.127-53.119 53.127z"  horiz-adv-x="1024" />

    
    <glyph glyph-name="icon12" unicode="&#59340;" d="M883.881 809H140.126C110.783 809 87 785.215 87 755.872s23.783-53.126 53.126-53.126h743.755c29.334 0 53.119 23.783 53.119 53.126C937 785.215 913.215 809 883.881 809z m-0.505-744h-531.25C322.783 65 299 41.217 299 11.874c0-29.334 23.783-53.118 53.126-53.118h531.25c29.341 0 53.126 23.784 53.126 53.118 0 29.343-23.785 53.126-53.126 53.126z m0 497h-531.25C322.783 562 299 538.217 299 508.874c0-29.343 23.783-53.127 53.126-53.127h531.25c29.341 0 53.126 23.784 53.126 53.127 0 29.343-23.785 53.126-53.126 53.126z m0.505-250H140.126C110.783 312 87 288.215 87 258.874c0-29.334 23.783-53.118 53.126-53.118h743.755c29.334 0 53.119 23.784 53.119 53.118C937 288.215 913.215 312 883.881 312z"  horiz-adv-x="1024" />

    
    <glyph glyph-name="icon13" unicode="&#59341;" d="M689.121 592.62H359.123c-20.99 0-63.001-35.814-63.001-80s42.012-80 63-80h329.999c20.988 0 63 35.814 63 80s-42.012 80-63 80zM173.117 809c29.342 0 53.127-23.783 53.127-53.126v-743.755c0-29.334-23.785-53.119-53.127-53.119C143.783-41 120-17.215 120 12.119V755.874C120 785.217 143.783 809 173.117 809z m668.01-497.133c20.982 0 62.995-35.82 62.995-80.006 0-44.176-42.013-79.994-62.996-79.994H359.123c-20.989 0-63.001 35.818-63.001 79.994 0 44.187 42.012 80.006 63 80.006z"  horiz-adv-x="1024" />

    
    <glyph glyph-name="icon14" unicode="&#59342;" d="M677 593H347c-20.988 0-63-35.814-63-80s42.012-80 63-80h330c20.987 0 63 35.814 63 80s-42.013 80-63 80zM753.004 312H271.001C250.012 312 208 276.18 208 231.993 208 187.817 250.012 152 271 152h482.004C773.987 152 816 187.817 816 231.993 816 276.181 773.987 312 753.004 312zM565.122 11.997V755.752c0 29.343-23.785 53.126-53.126 53.126-29.334 0-53.118-23.783-53.118-53.126v-743.755c0-29.334 23.784-53.119 53.118-53.119 29.34 0 53.126 23.785 53.126 53.119z"  horiz-adv-x="1024" />

    
    <glyph glyph-name="icon15" unicode="&#59343;" d="M937.122 11.997V755.752c0 29.343-23.785 53.126-53.128 53.126s-53.126-23.783-53.126-53.126v-743.755c0-29.334 23.783-53.119 53.126-53.119 29.343 0 53.128 23.785 53.128 53.119z m-744 106.505v531.25c0 29.343-23.784 53.126-53.126 53.126-29.334 0-53.118-23.783-53.118-53.126v-531.25c0-29.341 23.784-53.126 53.118-53.126 29.342 0 53.126 23.785 53.126 53.126z m497 0v531.25c0 29.343-23.784 53.126-53.126 53.126-29.343 0-53.127-23.783-53.127-53.126v-531.25c0-29.341 23.784-53.126 53.127-53.126 29.342 0 53.126 23.785 53.126 53.126z m-250-106.505V755.752c0 29.343-23.785 53.126-53.126 53.126-29.334 0-53.118-23.783-53.118-53.126v-743.755c0-29.334 23.784-53.119 53.118-53.119 29.34 0 53.126 23.785 53.126 53.119z"  horiz-adv-x="1024" />

    
    <glyph glyph-name="icon16" unicode="&#59344;" d="M937.122 11.997V755.752c0 29.343-23.785 53.126-53.128 53.126s-53.126-23.783-53.126-53.126v-743.755c0-29.334 23.783-53.119 53.126-53.119 29.343 0 53.128 23.785 53.128 53.119z m-744 0.505v531.25c0 29.343-23.784 53.126-53.126 53.126-29.334 0-53.118-23.783-53.118-53.126v-531.25c0-29.341 23.784-53.126 53.118-53.126 29.342 0 53.126 23.785 53.126 53.126z m497 0v531.25c0 29.343-23.784 53.126-53.126 53.126-29.343 0-53.127-23.783-53.127-53.126v-531.25c0-29.341 23.784-53.126 53.127-53.126 29.342 0 53.126 23.785 53.126 53.126z m-250-0.505V755.752c0 29.343-23.785 53.126-53.126 53.126-29.334 0-53.118-23.783-53.118-53.126v-743.755c0-29.334 23.784-53.119 53.118-53.119 29.34 0 53.126 23.785 53.126 53.119z"  horiz-adv-x="1024" />

    
    <glyph glyph-name="icon17" unicode="&#59345;" d="M335 592.62h330c20.988 0 63-35.814 63-80s-42.012-80-63-80H335c-20.987 0-63 35.814-63 80s42.013 80 63 80zM851.005 809c-29.34 0-53.126-23.783-53.126-53.126v-743.755c0-29.334 23.785-53.119 53.126-53.119 29.334 0 53.118 23.785 53.118 53.119V755.874c0 29.343-23.784 53.126-53.118 53.126zM182.996 311.867c-20.983 0-62.996-35.82-62.996-80.006 0-44.176 42.013-79.994 62.996-79.994h482.003c20.989 0 63.001 35.818 63.001 79.994 0 44.187-42.012 80.006-63 80.006z"  horiz-adv-x="1024" />

    
    <glyph glyph-name="icon18" unicode="&#59346;" d="M303.441 206.94V536.938c0 20.989 35.814 63.001 80 63.001s80-42.012 80-63v-330c0-20.987-35.814-63-80-63s-80 42.013-80 63zM87.061 722.944c0-29.342 23.783-53.127 53.126-53.127h743.755c29.334 0 53.119 23.785 53.119 53.127 0 29.333-23.785 53.117-53.119 53.117H140.187c-29.343 0-53.126-23.784-53.126-53.117z m497.133-668.01c0-20.982 35.819-62.995 80.006-62.995 44.176 0 79.994 42.013 79.994 62.996V536.938c0 20.989-35.818 63.001-79.994 63.001-44.187 0-80.006-42.012-80.006-63z"  horiz-adv-x="1024" />

    
    <glyph glyph-name="icon19" unicode="&#59347;" d="M87 383.883c0-29.342 23.783-53.127 53.126-53.127l162.752 0.001V218.88c0-20.988 35.814-63 80-63 43.744 0 79.283 41.176 79.99 62.364l0.01 0.636V330.757h121v-187.883c0-20.983 35.82-62.996 80.007-62.996 43.734 0 79.276 41.177 79.982 62.36l0.011 0.636V330.757h140.003c29.04 0 52.643 23.311 53.112 52.247l0.007 0.879C937 413.217 913.215 437 883.881 437H743.878V624.877c0 20.989-35.817 63.001-79.993 63.001-43.745 0-79.29-41.176-79.996-62.365l-0.01-0.636L583.877 437h-121V548.877c0 20.99-35.814 63.001-80 63.001-43.744 0-79.283-41.176-79.99-62.365l-0.01-0.636V437H140.126c-29.05 0-52.65-23.31-53.119-52.239z"  horiz-adv-x="1024" />

    
    <glyph glyph-name="icon20" unicode="&#59348;" d="M304.441 561.06v-329.998c0-20.989 35.814-63.001 80-63.001s80 42.012 80 63v330c0 20.987-35.814 63-80 63s-80-42.013-80-63zM88.061 45.056c0 29.342 23.783 53.127 53.126 53.127h743.755c29.334 0 53.119-23.785 53.119-53.127 0-29.333-23.785-53.117-53.119-53.117H141.187c-29.343 0-53.126 23.784-53.126 53.117z m497.133 668.01c0 20.982 35.819 62.995 80.006 62.995 44.176 0 79.994-42.013 79.994-62.996v-482.003c0-20.989-35.818-63.001-79.994-63.001-44.187 0-80.006 42.012-80.006 63z"  horiz-adv-x="1025" />

    
    <glyph glyph-name="icon21" unicode="&#59349;" d="M675.462 24.385c18.055 0 32.692-14.637 32.692-32.693 0-18.055-14.637-32.692-32.692-32.692h-32.693c-18.055 0-32.692 14.637-32.692 32.692 0 18.056 14.637 32.693 32.692 32.693z m-163.462 0c18.055 0 32.692-14.637 32.692-32.693C544.692-26.363 530.055-41 512-41h-32.692c-18.056 0-32.693 14.637-32.693 32.692 0 18.056 14.637 32.693 32.693 32.693z m-163.462 0c18.056 0 32.693-14.637 32.693-32.693 0-18.055-14.637-32.692-32.693-32.692h-32.692c-18.055 0-32.692 14.637-32.692 32.692 0 18.056 14.637 32.693 32.692 32.693z m-223.235-7.62c9.11 15.588 29.132 20.84 44.72 11.73 4.625-2.702 9.723-4.11 15.054-4.11 18.055 0 32.692-14.637 32.692-32.693 0-18.055-14.637-32.692-32.692-32.692-17.044 0-33.506 4.549-48.043 13.043-15.589 9.11-20.841 29.132-11.731 44.721z m-5.61 169.953c18.055 0 32.692-14.637 32.692-32.692v-32.693c0-18.055-14.637-32.692-32.693-32.692-18.055 0-32.692 14.637-32.692 32.692v32.693c0 18.055 14.637 32.692 32.692 32.692zM838.922 809C893.09 809 937 765.09 937 710.923v-490.385c0-54.166-43.91-98.076-98.077-98.076H348.538c-54.166 0-98.076 43.91-98.076 98.076V710.923c0 54.166 43.91 98.077 98.076 98.077h490.385z m0-65.385H348.538c-18.055 0-32.692-14.636-32.692-32.692v-490.385c0-18.055 14.637-32.692 32.692-32.692h490.385c18.056 0 32.692 14.637 32.692 32.692V710.923c0 18.056-14.636 32.692-32.692 32.692zM119.693 350.18c18.055 0 32.692-14.637 32.692-32.693v-32.692c0-18.055-14.637-32.692-32.693-32.692-18.055 0-32.692 14.637-32.692 32.692v32.692c0 18.056 14.637 32.693 32.692 32.693z m0 163.461c18.055 0 32.692-14.637 32.692-32.692v-32.692c0-18.056-14.637-32.693-32.693-32.693-18.055 0-32.692 14.637-32.692 32.693v32.692c0 18.055 14.637 32.692 32.692 32.692z"  horiz-adv-x="1024" />

    
    <glyph glyph-name="icon22" unicode="&#59350;" d="M119.692 580.154c18.056 0 32.693-14.637 32.693-32.692v-490.385c0-18.056 14.636-32.692 32.692-32.692h490.385c18.055 0 32.692-14.637 32.692-32.693 0-18.055-14.637-32.692-32.692-32.692H185.077C130.91-41 87 2.91 87 57.077V547.462c0 18.055 14.637 32.692 32.692 32.692z m592.48-392.308c18.056 0 32.693-14.637 32.693-32.692 0-18.056-14.637-32.692-32.692-32.692H679.48c-18.056 0-32.693 14.636-32.693 32.692 0 18.055 14.637 32.692 32.693 32.692h32.692z m-163.46 0c18.055 0 32.692-14.637 32.692-32.692 0-18.056-14.637-32.692-32.693-32.692H516.02c-18.055 0-32.692 14.636-32.692 32.692 0 18.055 14.637 32.692 32.692 32.692h32.692z m-196.155 0c18.056 0 32.693-14.637 32.693-32.692 0-18.056-14.637-32.692-32.693-32.692h-32.692c-18.055 0-32.692 14.636-32.692 32.692 0 18.055 14.637 32.692 32.692 32.692h32.692z m548.744-5.386c9.59-15.299 4.96-35.474-10.338-45.064a97.697 97.697 0 0 0-46.81-14.797c-18.03-0.952-33.419 12.892-34.371 30.923-0.953 18.03 12.891 33.419 30.922 34.371a32.32 32.32 0 0 1 15.534 4.905c15.298 9.589 35.474 4.96 45.063-10.338zM283.154 345.28c18.055 0 32.692-14.638 32.692-32.693v-32.692c0-18.056-14.637-32.693-32.692-32.693-18.056 0-32.692 14.637-32.692 32.693v32.692c0 18.055 14.636 32.692 32.692 32.692z m621.154 8.037c18.055 0 32.692-14.637 32.692-32.692v-32.692c0-18.056-14.637-32.693-32.692-32.693-18.056 0-32.693 14.637-32.693 32.693v32.692c0 18.055 14.637 32.692 32.693 32.692z m0 163.462c18.055 0 32.692-14.637 32.692-32.693v-32.692c0-18.055-14.637-32.692-32.692-32.692-18.056 0-32.693 14.637-32.693 32.692v32.692c0 18.056 14.637 32.693 32.693 32.693z m-621.154 24.654c18.055 0 32.692-14.637 32.692-32.692v-32.693c0-18.055-14.637-32.692-32.692-32.692-18.056 0-32.692 14.637-32.692 32.692v32.693c0 18.055 14.636 32.692 32.692 32.692zM904.308 680.24c18.055 0 32.692-14.637 32.692-32.692v-32.692c0-18.056-14.637-32.693-32.692-32.693-18.056 0-32.693 14.637-32.693 32.693v32.692c0 18.055 14.637 32.692 32.693 32.692z m-621.154 57.347c18.055 0 32.692-14.637 32.692-32.692v-32.693c0-18.055-14.637-32.692-32.692-32.692-18.056 0-32.692 14.637-32.692 32.692v32.693c0 18.055 14.636 32.692 32.692 32.692zM838.924 809c16.81 0 33.08-4.262 47.506-12.26 15.792-8.755 21.496-28.653 12.742-44.444-8.755-15.791-28.653-21.496-44.444-12.741-4.787 2.654-10.156 4.06-15.805 4.06-18.055 0-32.692 14.637-32.692 32.693 0 18.055 14.637 32.692 32.692 32.692zM381.23 809c18.055 0 32.692-14.637 32.692-32.692 0-18.056-14.637-32.693-32.692-32.693h-32.693c-18.055 0-32.692 14.637-32.692 32.693 0 18.055 14.637 32.692 32.692 32.692h32.693z m163.461 0c18.056 0 32.693-14.637 32.693-32.692 0-18.056-14.637-32.693-32.693-32.693H512c-18.055 0-32.692 14.637-32.692 32.693C479.308 794.363 493.945 809 512 809h32.692z m163.462 0c18.055 0 32.692-14.637 32.692-32.692 0-18.056-14.637-32.693-32.692-32.693h-32.692c-18.056 0-32.693 14.637-32.693 32.693 0 18.055 14.637 32.692 32.693 32.692h32.692z"  horiz-adv-x="1024" />

    
    <glyph glyph-name="icon23" unicode="&#59351;" d="M642.77 24.385h32.692c18.055 0 32.692-14.637 32.692-32.693 0-17.875-14.346-32.399-32.152-32.688l-0.54-0.004h-32.693c-18.055 0-32.692 14.637-32.692 32.692 0 17.875 14.345 32.4 32.152 32.688l0.54 0.005h32.693z m-163.462 0H512c18.055 0 32.692-14.637 32.692-32.693 0-17.875-14.345-32.399-32.151-32.688L512-41h-32.692c-18.056 0-32.693 14.637-32.693 32.692 0 17.875 14.346 32.4 32.152 32.688l0.54 0.005H512z m-163.462 0h32.692c18.056 0 32.693-14.637 32.693-32.693 0-17.875-14.346-32.399-32.152-32.688l-0.54-0.004h-32.693c-18.055 0-32.692 14.637-32.692 32.692 0 17.875 14.345 32.4 32.152 32.688l0.54 0.005h32.692z m-145.823 4.11c4.625-2.702 9.723-4.11 15.054-4.11 18.055 0 32.692-14.637 32.692-32.693 0-18.055-14.637-32.692-32.692-32.692-17.044 0-33.506 4.549-48.043 13.043-15.589 9.11-20.841 29.132-11.731 44.721 9.11 15.589 29.132 20.841 44.72 11.732z m-50.33 158.223c17.874 0 32.399-14.346 32.687-32.152l0.005-0.54v-32.693c0-18.055-14.637-32.692-32.693-32.692-17.875 0-32.399 14.346-32.688 32.152l-0.004 0.54v32.693c0 18.055 14.637 32.692 32.692 32.692z m602.472 491.513c46.428 0 84.066-37.638 84.066-84.066v-420.33c0-46.428-37.638-84.066-84.066-84.066h-420.33c-46.428 0-84.066 37.638-84.066 84.066v420.33c0 46.428 37.638 84.066 84.066 84.066h420.33z m-5.205-61.944H307.04c-15.092 0-27.327-12.235-27.327-27.327v-409.92c0-15.092 12.235-27.327 27.327-27.327h409.92c15.092 0 27.327 12.235 27.327 27.327V588.96c0 15.092-12.235 27.327-27.327 27.327zM119.692 350.18c17.875 0 32.4-14.346 32.688-32.152l0.005-0.54v-32.693c0-18.055-14.637-32.692-32.693-32.692-17.875 0-32.399 14.345-32.688 32.151l-0.004 0.541v32.692c0 18.056 14.637 32.693 32.692 32.693z m784.616 2.256c18.055 0 32.692-14.637 32.692-32.693v-32.692c0-18.055-14.637-32.692-32.692-32.692-18.056 0-32.693 14.637-32.693 32.692v32.692c0 18.056 14.637 32.693 32.693 32.693zM119.692 513.64c17.875 0 32.4-14.345 32.688-32.152l0.005-0.54v-32.692c0-18.056-14.637-32.693-32.693-32.693-17.875 0-32.399 14.346-32.688 32.152l-0.004 0.54V480.95c0 18.055 14.637 32.692 32.692 32.692z m784.616 2.256c18.055 0 32.692-14.637 32.692-32.692v-32.692c0-18.056-14.637-32.693-32.692-32.693-18.056 0-32.693 14.637-32.693 32.693v32.692c0 18.055 14.637 32.692 32.693 32.692z m0 163.462c18.055 0 32.692-14.637 32.692-32.692v-32.693c0-18.055-14.637-32.692-32.692-32.692-18.056 0-32.693 14.637-32.693 32.692v32.693c0 18.055 14.637 32.692 32.693 32.692zM838.923 809c17.044 0 33.506-4.549 48.043-13.043 15.589-9.11 20.841-29.132 11.731-44.721-9.11-15.589-29.132-20.841-44.72-11.732-4.625 2.703-9.723 4.111-15.054 4.111-18.055 0-32.692 14.637-32.692 32.693 0 18.055 14.637 32.692 32.692 32.692z m-457.692 0c18.055 0 32.692-14.637 32.692-32.692 0-18.056-14.637-32.693-32.692-32.693h-32.693c-18.055 0-32.692 14.637-32.692 32.693 0 18.055 14.637 32.692 32.692 32.692z m163.461 0c18.056 0 32.693-14.637 32.693-32.692 0-18.056-14.637-32.693-32.693-32.693H512c-18.055 0-32.692 14.637-32.692 32.693C479.308 794.363 493.945 809 512 809z m163.462 0c18.055 0 32.692-14.637 32.692-32.692 0-18.056-14.637-32.693-32.692-32.693h-32.692c-18.056 0-32.693 14.637-32.693 32.693 0 18.055 14.637 32.692 32.693 32.692z"  horiz-adv-x="1024" />

    
    <glyph glyph-name="icon24" unicode="&#59352;" d="M119.692 580.154c17.875 0 32.4-14.346 32.688-32.152l0.005-0.54v-490.385c0-17.875 14.345-32.4 32.151-32.688l0.54-0.004h490.386c18.055 0 32.692-14.637 32.692-32.693 0-17.875-14.346-32.399-32.152-32.688l-0.54-0.004H185.077c-53.625 0-97.198 43.037-98.064 96.455L87 57.077V547.462c0 18.055 14.637 32.692 32.692 32.692z m493.83-434.34c15.476 0 28.022-12.547 28.022-28.023 0-15.476-12.546-28.022-28.022-28.022H585.5c-15.476 0-28.022 12.546-28.022 28.022 0 15.476 12.546 28.022 28.022 28.022h28.022z m-140.11 0c15.476 0 28.022-12.547 28.022-28.023 0-15.476-12.546-28.022-28.022-28.022H445.39c-15.476 0-28.022 12.546-28.022 28.022 0 15.476 12.546 28.022 28.022 28.022h28.022z m-168.132 0c15.476 0 28.022-12.547 28.022-28.023 0-15.476-12.546-28.022-28.022-28.022h-28.022c-15.476 0-28.022 12.546-28.022 28.022 0 15.476 12.546 28.022 28.022 28.022h28.022z m470.352-4.618c8.219-13.113 4.252-30.406-8.861-38.625a83.74 83.74 0 0 0-40.123-12.684c-15.455-0.816-28.645 11.05-29.462 26.505-0.816 15.455 11.05 28.645 26.505 29.461a27.703 27.703 0 0 1 13.315 4.204c13.113 8.22 30.406 4.252 38.626-8.86zM348.538 809h490.385c53.625 0 97.198-43.037 98.064-96.455l0.013-1.622v-490.385c0-18.055-14.637-32.692-32.692-32.692-17.875 0-32.4 14.346-32.688 32.152l-0.005 0.54V710.923c0 17.875-14.345 32.4-32.151 32.688l-0.54 0.004H348.537c-18.055 0-32.692 14.637-32.692 32.693 0 17.875 14.346 32.399 32.152 32.688l0.54 0.004h490.385zM245.791 280.756c15.476 0 28.022-12.546 28.022-28.022v-28.022c0-15.476-12.546-28.022-28.022-28.022-15.476 0-28.022 12.546-28.022 28.022v28.022c0 15.476 12.546 28.022 28.022 28.022z m532.418 6.89c15.476 0 28.022-12.546 28.022-28.022v-28.022c0-15.477-12.546-28.022-28.022-28.022-15.476 0-28.022 12.545-28.022 28.022v28.022c0 15.476 12.546 28.022 28.022 28.022z m0 140.11c15.476 0 28.022-12.546 28.022-28.023v-28.022c0-15.476-12.546-28.022-28.022-28.022-15.476 0-28.022 12.546-28.022 28.022v28.022c0 15.477 12.546 28.022 28.022 28.022zM245.79 448.887c15.476 0 28.022-12.546 28.022-28.022v-28.022c0-15.476-12.546-28.022-28.022-28.022-15.476 0-28.022 12.546-28.022 28.022v28.022c0 15.476 12.546 28.022 28.022 28.022zM778.21 567.865c15.476 0 28.022-12.546 28.022-28.022v-28.022c0-15.476-12.546-28.022-28.022-28.022-15.476 0-28.022 12.546-28.022 28.022v28.022c0 15.476 12.546 28.022 28.022 28.022zM245.79 617.02c15.476 0 28.022-12.545 28.022-28.021v-28.022c0-15.477-12.546-28.022-28.022-28.022-15.476 0-28.022 12.545-28.022 28.022v28.022c0 15.476 12.546 28.021 28.022 28.021z m476.374 61.212c14.41 0 28.354-3.654 40.72-10.51 13.536-7.503 18.425-24.558 10.922-38.094-7.504-13.535-24.56-18.424-38.095-10.92-4.103 2.274-8.706 3.48-13.547 3.48-15.476 0-28.022 12.546-28.022 28.022 0 15.476 12.546 28.022 28.022 28.022z m-392.308 0c15.476 0 28.022-12.546 28.022-28.022 0-15.476-12.546-28.022-28.022-28.022h-28.022c-15.476 0-28.022 12.546-28.022 28.022 0 15.476 12.546 28.022 28.022 28.022h28.022z m140.11 0c15.476 0 28.022-12.546 28.022-28.022 0-15.476-12.546-28.022-28.022-28.022h-28.022c-15.476 0-28.022 12.546-28.022 28.022 0 15.476 12.546 28.022 28.022 28.022h28.022z m140.11 0c15.476 0 28.022-12.546 28.022-28.022 0-15.476-12.546-28.022-28.022-28.022h-28.022c-15.476 0-28.022 12.546-28.022 28.022 0 15.476 12.546 28.022 28.022 28.022h28.022z"  horiz-adv-x="1024" />

    


  </font>
</defs>
</svg>
